<svg xmlns="http://www.w3.org/2000/svg" viewBox="0 0 281.97 68.99"><defs><style>.cls-1{fill:#203266;}</style></defs><title>whimsy-framework-logo</title><g id="Layer_2" data-name="Layer 2"><g id="Layer_10" data-name="Layer 10"><path class="cls-1" d="M43.92.94,28.79,32.5a.72.72,0,0,1-.65.41h-.37a.71.71,0,0,1-.61-.41L22,21.64l-5.17,10.9a.67.67,0,0,1-.61.41h-.37a.67.67,0,0,1-.61-.41L.07,1A.47.47,0,0,1,.47.24H3.36c.37,0,.49.24.65.65L16,26.65l4.11-8.95L12.19.94A.47.47,0,0,1,12.6.2h2.93c.33,0,.45.24.61.65L22,13.63,27.85.9c.2-.41.29-.65.65-.65h2.93A.46.46,0,0,1,31.8,1L23.87,17.7,28,26.6,40,.85c.2-.41.33-.65.65-.65h2.93C43.88.2,44.17.49,43.92.94Z"/><path class="cls-1" d="M94.16.77V32.26c0,.33-.16.53-.49.53H91.92a1,1,0,0,1-1.1-1.18V18.47H70.64V32.22a.52.52,0,0,1-.53.57H67.84a.51.51,0,0,1-.57-.57V.77c0-.33.16-.53.57-.53h2.24a.52.52,0,0,1,.57.53V15.09H90.82V.77a.47.47,0,0,1,.53-.53h2.24A.5.5,0,0,1,94.16.77Z"/><path class="cls-1" d="M122.18.24a.5.5,0,0,1,.57.53V32.26a.51.51,0,0,1-.53.53H120a.49.49,0,0,1-.53-.53V.77A.47.47,0,0,1,120,.24Z"/><path class="cls-1" d="M185.44.81V32.22a.53.53,0,0,1-.57.57h-2.28a.51.51,0,0,1-.57-.57V7.16L167.46,31.65c-.2.33-.37.45-.65.45h-.16c-.28,0-.45-.12-.65-.45L151.43,7.16V32.22a.5.5,0,0,1-.53.57h-2.24c-.41,0-.61-.2-.61-.57V.77a.49.49,0,0,1,.53-.53h2a.63.63,0,0,1,.61.37l15.5,26,15.5-26a.65.65,0,0,1,.65-.37h2A.55.55,0,0,1,185.44.81Z"/><path class="cls-1" d="M211,25.91a.71.71,0,0,1,1.06-.12,10.84,10.84,0,0,0,8.26,4.07c4.84,0,7.2-2.73,7.2-5.65,0-4.07-4.35-5.25-7.89-6.51-5.57-2-9.23-4.39-9.23-9.23,0-4.15,3.21-8.46,9.84-8.46a13.38,13.38,0,0,1,9.23,3.78c.37.37.49.69.24,1.06l-1.14,1.42a.7.7,0,0,1-1.06.12,10.65,10.65,0,0,0-7.28-3.21c-3.74,0-6.47,2.2-6.47,5.25,0,3.46,3.09,4.76,7.49,6.35,4.88,1.87,9.6,4,9.6,9.44,0,4.88-4.27,8.83-10.58,8.83a13.7,13.7,0,0,1-10.37-4.76c-.28-.33-.53-.57-.16-1Z"/><path class="cls-1" d="M281.89.77,269,19.32v12.9c0,.37-.16.57-.53.57h-1.71a1.09,1.09,0,0,1-1.14-1.22V19.32L252.72.77A.34.34,0,0,1,253,.24h3c.24,0,.41.2.57.45L267.32,16,278.1.69c.16-.24.29-.45.53-.45h3.05A.32.32,0,0,1,281.89.77Z"/><path class="cls-1" d="M33.34,49v3.43a.52.52,0,0,1-.53.53H25v3.71h4a.53.53,0,0,1,.53.51v3.43a.52.52,0,0,1-.53.53H25v7.14a.53.53,0,0,1-.51.53H21.32a1.19,1.19,0,0,1-1.3-1.3V49a.49.49,0,0,1,.51-.51H32.81A.53.53,0,0,1,33.34,49Z"/><path class="cls-1" d="M58.38,68.79H54.59a2.17,2.17,0,0,1-1.65-1.09l-3-5.21h-2.7v5.77a.53.53,0,0,1-.51.53H42.85a.52.52,0,0,1-.53-.53V49a.49.49,0,0,1,.51-.51h8.26a7.2,7.2,0,0,1,7,6.92,7.4,7.4,0,0,1-3.41,6.08l4.07,6.74C58.94,68.51,58.79,68.79,58.38,68.79ZM47.25,58h3.08a2.55,2.55,0,1,0,0-5.08H47.25Z"/><path class="cls-1" d="M86.8,68.79H82.63a.54.54,0,0,1-.53-.33l-1-2.08h-8l-1,2.08a.53.53,0,0,1-.53.33H67.48c-.36,0-.51-.25-.36-.58l9.51-19.6a.44.44,0,0,1,.41-.25h.2a.44.44,0,0,1,.41.25l9.51,19.6C87.33,68.53,87.15,68.79,86.8,68.79ZM79.15,62.1l-2-4.35-2,4.35Z"/><path class="cls-1" d="M119.64,49V68.25a.53.53,0,0,1-.51.53h-3.89a.52.52,0,0,1-.53-.53V58.37l-6.08,9a.7.7,0,0,1-.63.38h-.2a.69.69,0,0,1-.61-.38l-5.92-9v9.86a.53.53,0,0,1-.51.53H96.86a.52.52,0,0,1-.53-.53V49a.49.49,0,0,1,.51-.51h3.71a.63.63,0,0,1,.53.36l6.81,10.52,7-10.52c.15-.23.28-.36.53-.36h3.71A.53.53,0,0,1,119.64,49Z"/><path class="cls-1" d="M134.69,52.92v3.71H139a.53.53,0,0,1,.53.51v3.43a.52.52,0,0,1-.53.53h-4.32v3.2h8.11a.53.53,0,0,1,.53.51v3.43a.52.52,0,0,1-.53.53H130.29a.52.52,0,0,1-.53-.53V49a.49.49,0,0,1,.51-.51H142.8a.53.53,0,0,1,.53.51v3.43a.52.52,0,0,1-.53.53Z"/><path class="cls-1" d="M156.42,48.45c.28,0,.51.23.66.64l3.38,10.17,4.65-10.17c.2-.41.38-.64.69-.64h.66c.3,0,.48.23.69.64l4.65,10.17,3.38-10.17c.15-.41.38-.64.66-.64h4c.33,0,.58.23.41.71L173.2,68.46c-.1.25-.3.53-.58.53h-.79c-.28,0-.48-.28-.58-.53l-5.11-12.3L161,68.46c-.1.25-.3.53-.58.53h-.79c-.28,0-.48-.28-.58-.53L152,49.16c-.18-.48.08-.71.41-.71Z"/><path class="cls-1" d="M199.2,69a10.35,10.35,0,1,1,10.35-10.35A10.33,10.33,0,0,1,199.2,69Zm0-4.8a5.55,5.55,0,1,0-5.34-5.57A5.59,5.59,0,0,0,199.18,64.16Z"/><path class="cls-1" d="M235.35,68.79h-3.79a2.17,2.17,0,0,1-1.65-1.09l-3-5.21h-2.7v5.77a.53.53,0,0,1-.51.53h-3.89a.52.52,0,0,1-.53-.53V49a.49.49,0,0,1,.51-.51h8.26a7.2,7.2,0,0,1,7,6.92,7.4,7.4,0,0,1-3.41,6.08l4.07,6.74C235.91,68.51,235.76,68.79,235.35,68.79ZM224.21,58h3.08a2.55,2.55,0,1,0,0-5.08h-3.08Z"/><path class="cls-1" d="M261.2,68.79h-3.89a.71.71,0,0,1-.61-.25l-6.63-7.37v7.09a.53.53,0,0,1-.51.53h-3.89a.52.52,0,0,1-.53-.53v-17a8,8,0,0,0-.33-2.08c-.08-.36.1-.69.43-.69h3.3a1.33,1.33,0,0,1,1.53,1.5v5.29l5.77-6.51a.71.71,0,0,1,.63-.28h4a.67.67,0,0,1,.53,1.14l-7.7,8.64,8.41,9.3A.71.71,0,0,1,261.2,68.79Z"/></g></g></svg>